<svg width="16" height="16" viewBox="0 0 16 16" fill="none" xmlns="http://www.w3.org/2000/svg">
<path d="M12.6666 7.33351L5.21998 7.33351L8.47331 4.08018C8.73331 3.82018 8.73331 3.39351 8.47331 3.13351C8.21331 2.87351 7.79331 2.87351 7.53331 3.13351L3.13998 7.52684C3.07818 7.58852 3.02915 7.66178 2.99569 7.74243C2.96224 7.82307 2.94502 7.90953 2.94502 7.99684C2.94502 8.08415 2.96224 8.17061 2.99569 8.25126C3.02915 8.33191 3.07818 8.40517 3.13998 8.46684L7.52665 12.8668C7.58837 12.9286 7.66164 12.9775 7.74228 13.0109C7.82293 13.0443 7.90936 13.0615 7.99665 13.0615C8.08393 13.0615 8.17037 13.0443 8.25101 13.0109C8.33165 12.9775 8.40493 12.9286 8.46665 12.8668C8.52837 12.8051 8.57733 12.7318 8.61073 12.6512C8.64413 12.5706 8.66133 12.4841 8.66133 12.3968C8.66133 12.3096 8.64413 12.2231 8.61073 12.1425C8.57733 12.0618 8.52837 11.9886 8.46665 11.9268L5.21998 8.66684L12.6666 8.66684C13.0333 8.66684 13.3333 8.36684 13.3333 8.00018C13.3333 7.63351 13.0333 7.33351 12.6666 7.33351Z" fill="#F2F2F2"/>
</svg>
