<svg width="16" height="16" viewBox="0 0 16 16" fill="none" xmlns="http://www.w3.org/2000/svg">
<path d="M12.6666 7.33351L5.21992 7.33351L8.47325 4.08018C8.73325 3.82018 8.73325 3.39351 8.47325 3.13351C8.21325 2.87351 7.79325 2.87351 7.53325 3.13351L3.13992 7.52684C3.07812 7.58852 3.02908 7.66178 2.99563 7.74243C2.96218 7.82307 2.94496 7.90953 2.94496 7.99684C2.94496 8.08415 2.96218 8.17061 2.99563 8.25126C3.02908 8.33191 3.07812 8.40517 3.13992 8.46684L7.52659 12.8668C7.58831 12.9286 7.66158 12.9775 7.74222 13.0109C7.82287 13.0443 7.9093 13.0615 7.99659 13.0615C8.08387 13.0615 8.1703 13.0443 8.25095 13.0109C8.33159 12.9775 8.40486 12.9286 8.46659 12.8668C8.52831 12.8051 8.57727 12.7318 8.61067 12.6512C8.64407 12.5706 8.66127 12.4841 8.66127 12.3968C8.66127 12.3096 8.64407 12.2231 8.61067 12.1425C8.57727 12.0618 8.52831 11.9886 8.46659 11.9268L5.21992 8.66684L12.6666 8.66684C13.0333 8.66684 13.3333 8.36684 13.3333 8.00018C13.3333 7.63351 13.0333 7.33351 12.6666 7.33351Z" fill="#F2F2F2"/>
</svg>
