<svg width="146" height="300" viewBox="0 0 146 300" fill="none" xmlns="http://www.w3.org/2000/svg">
<path fill-rule="evenodd" clip-rule="evenodd" d="M22.1748 0H123.999C135.524 0 144.867 9.31849 144.867 20.8134V65.7311C145.286 65.8789 145.587 66.2777 145.587 66.7464V96.5311C145.587 96.9998 145.286 97.3986 144.867 97.5464V279.187C144.867 290.682 135.524 300 123.999 300H22.1748C10.6494 300 1.30627 290.682 1.30627 279.187V102.211C0.887035 102.064 0.58667 101.665 0.58667 101.196V83.9713C0.58667 83.5025 0.887035 83.1038 1.30627 82.956V76.3742C0.887035 76.2264 0.58667 75.8276 0.58667 75.3588V58.134C0.58667 57.6652 0.887035 57.2665 1.30627 57.1187V48.3837C0.887035 48.2359 0.58667 47.8372 0.58667 47.3684V38.3971C0.58667 37.9284 0.887035 37.5296 1.30627 37.3818V20.8134C1.30627 9.31849 10.6494 0 22.1748 0Z" fill="#292929"/>
</svg>
